<svg width="22" height="23" viewBox="0 0 22 23" fill="none" xmlns="http://www.w3.org/2000/svg">
<path d="M11.75 7.75C11.75 7.33579 11.4142 7 11 7C10.5858 7 10.25 7.33579 10.25 7.75L11.75 7.75ZM8 12C7.58579 12 7.25 12.3358 7.25 12.75C7.25 13.1642 7.58579 13.5 8 13.5V12ZM1.53148 2.41435C1.20803 2.67311 1.15559 3.14507 1.41435 3.46852C1.67311 3.79197 2.14507 3.84441 2.46852 3.58565L1.53148 2.41435ZM4.96852 1.58565C5.29197 1.32689 5.34441 0.854925 5.08565 0.531479C4.82689 0.208032 4.35493 0.155591 4.03148 0.414348L4.96852 1.58565ZM19.5315 3.58565C19.8549 3.84441 20.3269 3.79197 20.5857 3.46852C20.8444 3.14507 20.792 2.67311 20.4685 2.41435L19.5315 3.58565ZM17.9685 0.414348C17.6451 0.155591 17.1731 0.208032 16.9143 0.531479C16.6556 0.854925 16.708 1.32689 17.0315 1.58565L17.9685 0.414348ZM11 11.25L10.25 11.25L11 11.25ZM10.25 7.75L10.25 11.25L11.75 11.25L11.75 7.75L10.25 7.75ZM20.25 11.75C20.25 16.8586 16.1086 21 11 21V22.5C16.9371 22.5 21.75 17.6871 21.75 11.75H20.25ZM11 21C5.89137 21 1.75 16.8586 1.75 11.75H0.25C0.25 17.6871 5.06294 22.5 11 22.5V21ZM1.75 11.75C1.75 6.64137 5.89137 2.5 11 2.5V1C5.06294 1 0.25 5.81294 0.25 11.75H1.75ZM11 2.5C16.1086 2.5 20.25 6.64137 20.25 11.75H21.75C21.75 5.81294 16.9371 1 11 1V2.5ZM2.46852 3.58565L4.96852 1.58565L4.03148 0.414348L1.53148 2.41435L2.46852 3.58565ZM20.4685 2.41435L17.9685 0.414348L17.0315 1.58565L19.5315 3.58565L20.4685 2.41435ZM8 13.5H9.5V12H8V13.5ZM10.25 11.25C10.25 11.6642 9.91421 12 9.5 12V13.5C10.7426 13.5 11.75 12.4926 11.75 11.25L10.25 11.25Z" fill="#666666"/>
</svg>
